Coordinates
version=1
nRows=10
nColumns=40
inDegrees=yes

Units are S.I. units (second, meters, Newtons, ...)
If the header above contains a line with 'inDegrees', this indicates whether rotational values are in degrees (yes) or radians (no).

endheader
time	pelvis_tilt	pelvis_list	pelvis_rotation	pelvis_tx	pelvis_ty	pelvis_tz	hip_flexion_r	hip_adduction_r	hip_rotation_r	knee_angle_r	knee_angle_r_beta	ankle_angle_r	subtalar_angle_r	mtp_angle_r	hip_flexion_l	hip_adduction_l	hip_rotation_l	knee_angle_l	knee_angle_l_beta	ankle_angle_l	subtalar_angle_l	mtp_angle_l	lumbar_extension	lumbar_bending	lumbar_rotation	arm_flex_r	arm_add_r	arm_rot_r	elbow_flex_r	pro_sup_r	wrist_flex_r	wrist_dev_r	arm_flex_l	arm_add_l	arm_rot_l	elbow_flex_l	pro_sup_l	wrist_flex_l	wrist_dev_l
      7.14000000	    -19.68079301	     -2.32665421	     -2.65357768	     -0.40861569	      0.83464601	     -0.77902418	     65.83051481	      3.74672442	     -9.66225189	     78.57405449	      1.37137596	     24.81982132	      0.00000000	      0.00000000	     42.96864319	    -20.44527897	      5.29245665	    114.39307631	      1.99653582	    -24.89206090	      0.00000000	      0.00000000	     -4.62148851	      9.22884950	     11.03144169	     89.97173958	    -18.64618411	     11.91226501	     51.86310341	     72.95097732	      0.00000000	      0.00000000	     89.96849132	     -1.55448078	      9.83449480	     49.20449050	     80.96612867	      0.00000000	      0.00000000
      7.14500000	    -19.66586579	     -2.35542331	     -2.61353595	     -0.40854798	      0.83511385	     -0.77900682	     65.77822635	      3.75439212	     -9.66848740	     78.51970483	      1.37042738	     24.80719396	      0.00000000	      0.00000000	     42.96515482	    -20.34967503	      5.22784053	    114.38322266	      1.99636384	    -24.89900033	      0.00000000	      0.00000000	     -4.58590654	      9.23634073	     11.01797162	     89.97167633	    -18.66288498	     11.91185856	     51.85502299	     72.95832308	      0.00000000	      0.00000000	     89.96846985	     -1.53236559	      9.85511001	     49.21167488	     80.96368699	      0.00000000	      0.00000000
      7.15000000	    -19.60643377	     -2.36254126	     -2.56358340	     -0.40850682	      0.83590764	     -0.77900496	     65.61905098	      3.74303454	     -9.65729269	     78.32357162	      1.36700421	     24.75861697	      0.00000000	      0.00000000	     42.91357781	    -20.22486954	      5.16583225	    114.37605357	      1.99623872	    -24.90177911	      0.00000000	      0.00000000	     -4.60041266	      9.21432392	     10.99523052	     89.97164390	    -18.70469954	     11.92593103	     51.75418439	     72.97613957	      0.00000000	      0.00000000	     89.96848280	     -1.47071975	      9.91568993	     49.19282183	     80.95806658	      0.00000000	      0.00000000
      7.15500000	    -19.59645180	     -2.40429616	     -2.53153288	     -0.40836007	      0.83634493	     -0.77889616	     65.58678285	      3.77299261	     -9.67140318	     78.30802945	      1.36673294	     24.75402953	      0.00000000	      0.00000000	     42.90269197	    -20.16587157	      5.10505122	    114.37496277	      1.99621968	    -24.90123356	      0.00000000	      0.00000000	     -4.55519020	      9.23842990	     10.98979622	     89.97150210	    -18.71473726	     11.91896144	     51.76315928	     72.97838281	      0.00000000	      0.00000000	     89.96843735	     -1.45375373	      9.91999135	     49.21652423	     80.95711442	      0.00000000	      0.00000000
      7.16000000	    -19.47950920	     -2.42256992	     -2.46592764	     -0.40823892	      0.83713564	     -0.77895598	     65.36347683	      3.74960429	     -9.67799142	     78.11809189	      1.36341791	     24.70033324	      0.00000000	      0.00000000	     42.79078781	    -20.00548562	      5.07259377	    114.39932190	      1.99664483	    -24.86412665	      0.00000000	      0.00000000	     -4.60875016	      9.22235378	     10.96013447	     89.97154804	    -18.75722810	     11.97273638	     51.60469176	     73.00971350	      0.00000000	      0.00000000	     89.96852804	     -1.38531625	     10.01219310	     49.14610156	     80.94452038	      0.00000000	      0.00000000
      7.16500000	    -19.41898461	     -2.43055398	     -2.43233541	     -0.40822780	      0.83780216	     -0.77892463	     65.24317695	      3.74472567	     -9.67837301	     78.01109624	      1.36155048	     24.66838895	      0.00000000	      0.00000000	     42.74857079	    -19.88798432	      5.04215224	    114.40203017	      1.99669210	    -24.80674571	      0.00000000	      0.00000000	     -4.62657478	      9.21867392	     10.96619498	     89.97153865	    -18.77774359	     11.98714364	     51.57542763	     73.03447195	      0.00000000	      0.00000000	     89.96856590	     -1.36411076	     10.04917460	     49.14357605	     80.93181184	      0.00000000	      0.00000000
      7.17000000	    -19.36653438	     -2.43109715	     -2.36776135	     -0.40815998	      0.83849271	     -0.77893909	     65.12094476	      3.71470110	     -9.66826136	     77.89605428	      1.35954262	     24.63576113	      0.00000000	      0.00000000	     42.71002066	    -19.74867025	      4.96553334	    114.43974071	      1.99735027	    -24.76314989	      0.00000000	      0.00000000	     -4.62272214	      9.19865567	     10.93362612	     89.97147531	    -18.79814933	     11.99651607	     51.52064856	     73.05722160	      0.00000000	      0.00000000	     89.96853107	     -1.31063336	     10.08035110	     49.12977048	     80.92174022	      0.00000000	      0.00000000
      7.17500000	    -19.35998732	     -2.46238109	     -2.34183984	     -0.40808731	      0.83915923	     -0.77885716	     65.07837747	      3.74019832	     -9.67646945	     77.85559956	      1.35883655	     24.62673180	      0.00000000	      0.00000000	     42.70915014	    -19.67873955	      4.90903282	    114.44758250	      1.99748714	    -24.76082095	      0.00000000	      0.00000000	     -4.59332809	      9.21453294	     10.93060166	     89.97135798	    -18.80346950	     11.99475611	     51.52436004	     73.06138263	      0.00000000	      0.00000000	     89.96856446	     -1.29254393	     10.07889128	     49.15862585	     80.91908547	      0.00000000	      0.00000000
      7.18000000	    -19.29512168	     -2.47103192	     -2.28003851	     -0.40801446	      0.83988248	     -0.77879499	     64.90965949	      3.72966967	     -9.66529302	     77.64498870	      1.35516070	     24.57504060	      0.00000000	      0.00000000	     42.66971120	    -19.53670800	      4.89343913	    114.49533285	      1.99832054	    -24.73505633	      0.00000000	      0.00000000	     -4.59337322	      9.18541042	     10.88628333	     89.97135348	    -18.81901663	     12.04418416	     51.41996783	     73.08242905	      0.00000000	      0.00000000	     89.96857478	     -1.24526087	     10.12745495	     49.14454552	     80.91137390	      0.00000000	      0.00000000
      7.18500000	    -19.27864152	     -2.49521867	     -2.24301781	     -0.40799324	      0.84052888	     -0.77868297	     64.85898435	      3.74816787	     -9.67560339	     77.60692841	      1.35449642	     24.56243328	      0.00000000	      0.00000000	     42.68678988	    -19.47735260	      4.83273173	    114.51421483	      1.99865009	    -24.73192289	      0.00000000	      0.00000000	     -4.56076828	      9.19712080	     10.87576336	     89.97129854	    -18.82751126	     12.03799630	     51.42365954	     73.08616030	      0.00000000	      0.00000000	     89.96857731	     -1.22773714	     10.13475337	     49.16641809	     80.90969824	      0.00000000	      0.00000000
